Legacy.Black.Ops.2010.720p.BRRip.x264.Feel-Free 

Genre:Thriller
Language:English
IMDb:http://www.imdb.com/title/tt1436034/
Source:BluRay.x264-AVCHD
Subtitles:Romana

Format : MPEG-4
Format profile : Base Media
Codec ID : isom
File size : 2.25 GiB
Duration : 1h 32mn
Overall bit rate : 3 468 Kbps

Video
Format profile : High@L4.1
Format settings, CABAC : Yes
Format settings, ReFrames : 3 frames
Codec ID : avc1
Codec ID/Info : Advanced Video Coding
Duration : 1h 32mn
Bit rate mode : Variable
Bit rate : 3 117 Kbps
Maximum bit rate : 14.4 Mbps
Width : 1 280 pixels
Height : 528 pixels
Display aspect ratio : 2.40:1
Frame rate mode : Constant
Frame rate : 24.000 fps
Color space : YUV
Chroma subsampling : 4:2:0
Bit depth : 8 bits
Scan type : Progressive
Bits/(Pixel*Frame) : 0.192
Stream size : 1.96 GiB (87%)
Writing library : x264

Audio
ID : 2
Format : AAC
Format/Info : Advanced Audio Codec
Format version : Version 4
Format profile : LC
Format settings, SBR : No
Codec ID : 40
Duration : 1h 32mn
Bit rate mode : Variable
Bit rate : 441 Kbps
Maximum bit rate : 534 Kbps
Channel(s) : 6 channels
Channel positions : Front: L C R, Side: L R, LFE
Sampling rate : 48.0 KHz
Stream size : 293 MiB (13%)


Plot:

Black Ops operative Malcolm Gray returns home after a botched mission in Eastern Europe. Holed up in a Brooklyn motel room.


Screens:

 
http://leetleech.org/images/14439227422251994917.jpg
 
http://leetleech.org/images/14885561660132510777.jpg
 
http://leetleech.org/images/75497435512120346685.jpg


ENJOY!